<?xml version="1.0" encoding="UTF-8" standalone="no"?>
<!-- Created with Inkscape (http://www.inkscape.org/) -->

<svg
   width="242.94821mm"
   height="118.54421mm"
   viewBox="0 0 242.94821 118.54421"
   version="1.1"
   id="svg1"
   xmlns="http://www.w3.org/2000/svg"
   xmlns:svg="http://www.w3.org/2000/svg">
  <defs
     id="defs1" />
  <g
     id="layer1"
     transform="translate(-19.978782,-62.652134)">
    <circle
       style="fill:none;stroke:#000000;stroke-width:1.465;stroke-dasharray:none"
       id="path1"
       cx="126.31813"
       cy="-75.68425"
       r="53.815067"
       transform="rotate(90)" />
    <path
       style="font-weight:500;font-size:18.3444px;font-family:Montserrat;-inkscape-font-specification:'Montserrat Medium';text-align:center;text-anchor:middle;fill:#d13c42;stroke-width:0.965"
       d="m 31.654416,95.536614 q -0.80972,1.223954 -1.912941,1.461903 -1.103222,0.23795 -2.327175,-0.571771 l -7.435517,-4.919051 0.971665,-1.468744 7.374319,4.878565 q 0.657875,0.435225 1.222313,0.346732 0.57456,-0.103793 0.97942,-0.715769 0.455468,-0.688474 0.376627,-1.400494 l 1.359305,0.239401 q 0.06802,0.528896 -0.108056,1.094271 -0.16595,0.550076 -0.49996,1.054957 z m -9.603182,-0.678278 -1.208654,-0.799599 3.421069,-5.171203 1.208654,0.799599 z m 14.829808,-5.672558 q -1.067034,1.137003 -2.351178,1.567108 -1.271591,0.416729 -2.539478,0.13253 -1.255333,-0.297577 -2.312076,-1.28929 -1.056744,-0.991714 -1.445897,-2.212269 -0.376599,-1.233931 -0.0782,-2.463334 0.297576,-1.255333 1.25163,-2.271947 0.966607,-1.029991 2.162055,-1.392391 1.195448,-0.3624 2.439051,-0.02552 1.24278,0.310953 2.339653,1.340326 0.08026,0.07532 0.174717,0.189124 0.107012,0.100426 0.188095,0.201676 l -5.661556,6.032801 -0.922978,-0.86618 5.033888,-5.363976 -0.168544,0.822963 q -0.669648,-0.653596 -1.480882,-0.861447 -0.811233,-0.207851 -1.595096,0.03766 -0.784686,0.219581 -1.424907,0.901782 -0.627667,0.668825 -0.809587,1.479235 -0.195298,0.797857 0.07696,1.606827 0.258887,0.796417 0.954465,1.44919 l 0.214024,0.200854 q 0.708954,0.665326 1.572047,0.871531 0.86227,0.180274 1.722277,-0.119565 0.860006,-0.299839 1.575546,-1.0623 0.590007,-0.628695 0.85301,-1.337855 0.275556,-0.722537 0.211555,-1.512163 l 1.49467,0.06935 q 0.109893,1.008794 -0.273704,2.007298 -0.371044,0.985128 -1.199565,1.867977 z m 3.570336,-3.828677 0.240262,-6.849822 0.508303,0.741581 -6.258714,-1.904221 1.596052,-1.142541 4.803913,1.479232 -0.611572,0.437796 0.148326,-5.024311 1.56622,-1.121184 -0.238388,6.600317 -0.529659,-0.771413 6.591441,1.95932 -1.625886,1.163896 -5.087651,-1.591959 0.645807,-0.326941 -0.152401,5.207709 z m 12.639483,-7.775322 q -1.31719,0.647086 -2.389453,0.294993 -1.072263,-0.352092 -1.719349,-1.669282 l -3.931046,-8.001928 1.580628,-0.776503 3.898692,7.936069 q 0.347808,0.707989 0.879608,0.916821 0.548264,0.200744 1.206859,-0.122799 0.740919,-0.363986 1.032651,-1.018265 l 1.052058,0.893419 q -0.208544,0.490781 -0.646158,0.889711 -0.421149,0.390841 -0.96449,0.657764 z m -7.944415,-5.437595 -0.638997,-1.300725 5.565127,-2.733938 0.638997,1.300725 z m 20.608334,1.394853 q -1.442204,0.271581 -2.678729,-0.148908 -1.236524,-0.420489 -2.092597,-1.397958 -0.859467,-0.995497 -1.124259,-2.401646 -0.268186,-1.424176 0.173725,-2.646068 0.441911,-1.221892 1.444198,-2.045305 0.998891,-0.841439 2.441095,-1.11302 1.424177,-0.268187 2.660702,0.152302 1.251157,0.399067 2.089202,1.379931 0.852678,0.959441 1.124259,2.401645 0.268186,1.424177 -0.173725,2.646069 -0.423884,1.218497 -1.440803,2.063332 -0.998891,0.841439 -2.423068,1.109626 z m -0.28516,-1.514314 q 0.919405,-0.173133 1.562428,-0.723558 0.66105,-0.553819 0.933103,-1.389055 0.268659,-0.853265 0.07855,-1.862808 -0.193502,-1.02757 -0.747321,-1.68862 -0.557214,-0.679078 -1.374423,-0.954526 -0.799182,-0.278843 -1.718587,-0.10571 -0.919405,0.173133 -1.562427,0.723557 -0.643023,0.550424 -0.933104,1.389056 -0.293476,0.820604 -0.09997,1.848174 0.190107,1.009543 0.768743,1.703253 0.575241,0.675683 1.374423,0.954526 0.799181,0.278843 1.718586,0.105711 z M 78.727049,62.75863 q 1.191517,0.04551 2.072234,0.538095 0.899047,0.493285 1.376608,1.447772 0.47756,0.954487 0.422947,2.384308 l -0.213551,5.590965 -1.759779,-0.06722 0.205849,-5.389324 q 0.05391,-1.411489 -0.61536,-2.153006 -0.650942,-0.740816 -1.897452,-0.788428 -0.934883,-0.03571 -1.645465,0.304306 -0.710583,0.340014 -1.122841,1.040221 -0.393927,0.700907 -0.434537,1.764107 l -0.191145,5.004372 -1.75978,-0.06722 0.371089,-9.715447 1.686455,0.06442 -0.100124,2.621338 -0.248359,-0.707082 q 0.513015,-0.93501 1.523196,-1.428801 1.010181,-0.49379 2.330015,-0.443379 z m 16.517973,13.539692 q -1.132554,-0.428007 -1.8818,-1.299477 -0.725601,-0.882145 -0.902781,-2.125743 -0.16002,-1.237112 0.423626,-2.781504 0.583646,-1.544392 1.504701,-2.372952 0.938214,-0.822076 2.059398,-0.986686 1.138343,-0.158124 2.305217,0.282853 1.338477,0.505826 2.147577,1.47836 0.80911,0.972534 1.01412,2.246262 0.2115,1.256568 -0.31378,2.64652 -0.52528,1.389953 -1.52146,2.209734 -0.99618,0.81978 -2.246262,1.01412 -1.250083,0.194339 -2.588556,-0.311487 z m -6.041105,1.40379 4.695108,-12.423772 1.578711,0.596616 -0.927349,2.453866 -0.900609,2.071759 -0.62605,2.175518 -2.17246,5.748568 z m 6.448562,-2.897102 q 0.875155,0.330733 1.710705,0.195453 0.852711,-0.128794 1.519757,-0.700357 0.69069,-0.582237 1.053848,-1.543191 0.369641,-0.978115 0.223691,-1.83731 -0.12231,-0.86987 -0.676715,-1.530431 -0.537242,-0.654076 -1.412398,-0.984809 -0.857995,-0.324248 -1.710705,-0.195453 -0.83555,0.13528 -1.519756,0.700357 -0.660561,0.554402 -1.030204,1.532517 -0.363157,0.960954 -0.247332,1.847984 0.139469,0.876355 0.676712,1.530431 0.554402,0.660561 1.412397,0.984809 z m 11.320011,7.672109 1.12359,-1.720123 0.13388,-0.372684 1.91611,-2.933424 q 0.61196,-0.936853 0.39012,-1.804828 -0.19645,-0.873301 -1.28689,-1.585574 -0.72184,-0.471505 -1.57347,-0.677213 -0.8416,-0.221068 -1.57854,-0.132746 l 0.10798,-1.507074 q 0.96074,-0.09551 2.00671,0.215225 1.07135,0.305409 2.03892,0.937426 1.67405,1.09349 2.04849,2.499366 0.37444,1.405876 -0.71905,3.079925 l -3.21025,4.914638 z m -2.73253,-1.653421 q -0.90613,-0.591889 -1.39661,-1.350495 -0.47512,-0.748574 -0.4926,-1.526881 -0.007,-0.793665 0.44399,-1.484786 0.43138,-0.660404 1.08967,-0.997303 0.67364,-0.326866 1.59079,-0.187916 0.93251,0.148982 2.14581,0.941511 l 2.58019,1.685379 -0.69221,1.059719 -2.51875,-1.645251 q -1.1058,-0.722305 -1.73052,-0.604508 -0.62473,0.117797 -0.96582,0.639978 -0.39124,0.598971 -0.15591,1.278562 0.24537,0.664232 1.09008,1.215993 0.82934,0.541729 1.68444,0.574411 0.87046,0.04272 1.60838,-0.483188 l -0.37031,1.204253 q -0.76331,0.531229 -1.7814,0.479723 -1.00806,-0.06686 -2.12922,-0.799201 z m 8.98017,7.065912 q -1.07268,-1.001529 -1.12434,-2.128937 -0.0516,-1.127408 0.94988,-2.200091 l 6.08429,-6.516548 1.28722,1.201835 -6.03421,6.462914 q -0.53833,0.576567 -0.54469,1.147865 0.007,0.583817 0.54339,1.084581 0.60339,0.56336 1.31862,0.60372 l -0.46156,1.300763 q -0.53285,-0.02066 -1.06119,-0.288074 -0.51493,-0.254897 -0.95741,-0.668028 z m 2.26183,-9.357632 0.98901,-1.059274 4.53209,4.23146 -0.98901,1.059274 z m 11.86527,10.63775 q 0.70543,0.961329 0.86747,1.957342 0.1729,1.010803 -0.2775,1.978405 -0.45039,0.967602 -1.60399,1.814118 l -4.51085,3.310093 -1.04186,-1.419809 4.34816,-3.190713 q 1.13881,-0.835663 1.3032,-1.820928 0.17524,-0.970476 -0.56274,-1.976174 -0.5535,-0.754274 -1.26169,-1.099226 -0.7082,-0.344952 -1.51291,-0.232278 -0.79385,0.127464 -1.65165,0.756925 l -4.03758,2.962805 -1.04187,-1.419809 10.97394,-8.052752 1.04187,1.419809 -5.25034,3.852732 0.35581,-0.693409 q 1.05123,-0.179812 2.06618,0.3041 1.01495,0.483912 1.79635,1.548769 z"
       id="text1"
       aria-label="text on path" />
    <circle
       style="fill:none;stroke:#000000;stroke-width:1.465;stroke-dasharray:none"
       id="path1-5"
       cx="-126.31812"
       cy="-208.37946"
       r="53.815067"
       transform="matrix(0,-1,-1,0,0,0)" />
    <path
       style="font-weight:500;font-size:18.3444px;font-family:Montserrat;-inkscape-font-specification:'Montserrat Medium';text-align:center;letter-spacing:0.637646px;text-anchor:middle;fill:#d13c42;stroke-width:0.965"
       d="m 162.08245,154.00221 q -0.72072,-1.27838 -0.42999,-2.36888 0.29073,-1.0905 1.56911,-1.81123 l 7.76617,-4.37843 0.86487,1.53406 -7.70225,4.34239 q -0.68713,0.38739 -0.86547,0.93018 -0.16934,0.55876 0.19103,1.19795 0.40541,0.71909 1.07517,0.97326 l -0.83233,1.10102 q -0.50181,-0.18038 -0.92491,-0.59468 -0.4141,-0.39831 -0.7114,-0.92564 z m 4.97841,-8.23994 1.2624,-0.71172 3.04508,5.40116 -1.2624,0.71172 z m 0.2156,15.46626 q -0.99784,-1.19819 -1.26752,-2.52533 -0.25794,-1.31304 0.17933,-2.5366 0.449,-1.20947 1.56261,-2.13687 1.11361,-0.9274 2.37262,-1.16422 1.27076,-0.22272 2.45439,0.22393 1.20946,0.449 2.10165,1.52032 0.90392,1.08542 1.11726,2.31624 0.21334,1.23082 -0.27324,2.42383 -0.46074,1.19537 -1.61665,2.15799 -0.0846,0.0704 -0.20908,0.15025 -0.11277,0.0939 -0.22319,0.162 l -5.2944,-6.35746 0.97265,-0.81001 4.70744,5.65264 -0.79615,-0.26801 q 0.73066,-0.58461 1.03625,-1.3643 0.30559,-0.77969 0.15788,-1.58771 -0.12188,-0.80566 -0.72058,-1.52458 -0.58696,-0.70482 -1.36901,-0.98457 -0.76795,-0.2915 -1.60416,-0.12031 -0.82212,0.15945 -1.55513,0.7699 l -0.22554,0.18782 q -0.74711,0.62218 -1.05741,1.45354 -0.28447,0.83372 -0.0922,1.72396 0.19231,0.89025 0.86145,1.69374 0.55174,0.66253 1.22337,1.01036 0.68338,0.36193 1.4749,0.39507 l -0.2518,1.47494 q -1.01466,-0.0144 -1.95869,-0.51736 -0.9323,-0.48884 -1.70709,-1.4192 z m 3.96894,4.33527 6.64809,-1.66755 -0.57166,0.69391 0.095,-6.54129 1.54013,1.21688 -0.0899,5.02569 -0.59014,-0.46628 4.86861,-1.24995 1.51133,1.19413 -6.40783,1.60021 0.5944,-0.72271 -0.0558,6.87626 -1.56891,-1.23962 0.11957,-5.32957 0.49312,0.5299 -5.04595,1.29687 z m 12.71877,8.85088 q -1.29336,-0.69349 -1.63196,-1.77009 -0.33859,-1.0766 0.3549,-2.36996 l 4.21296,-7.85716 1.55203,0.83219 -4.17829,7.79249 q -0.37275,0.69518 -0.23262,1.24907 0.1563,0.56255 0.80298,0.90929 0.72751,0.39009 1.42924,0.24598 l -0.11313,1.37558 q -0.52038,0.11646 -1.09957,-0.007 -0.56303,-0.11455 -1.09654,-0.40062 z m -0.20952,-9.62482 0.68483,-1.27719 5.46444,2.93 -0.68482,1.27719 z m 14.02734,14.40183 q -1.43889,-0.28865 -2.42774,-1.14187 -0.98885,-0.85321 -1.41625,-2.08026 -0.4238,-1.24503 -0.14236,-2.64794 0.28504,-1.4209 1.15264,-2.38815 0.86759,-0.96726 2.1054,-1.35508 1.24142,-0.40581 2.68031,-0.11716 1.4209,0.28505 2.40975,1.13826 1.01044,0.83884 1.41986,2.06228 0.43101,1.20905 0.14236,2.64794 -0.28504,1.4209 -1.15264,2.38815 -0.84961,0.97087 -2.10902,1.37307 -1.24142,0.4058 -2.66231,0.12076 z m 0.30308,-1.51083 q 0.91729,0.18402 1.71972,-0.0853 0.82041,-0.26574 1.38564,-0.93817 0.56882,-0.69041 0.77088,-1.69763 0.20566,-1.02521 -0.0601,-1.84562 -0.26214,-0.8384 -0.91658,-1.40002 -0.63646,-0.558 -1.55374,-0.74202 -0.91729,-0.18401 -1.71972,0.0853 -0.80243,0.26935 -1.38564,0.93817 -0.5796,0.65084 -0.78526,1.67604 -0.20206,1.00722 0.0745,1.86722 0.28012,0.84201 0.91658,1.40001 0.63645,0.55801 1.55374,0.74202 z m 12.58807,-7.41745 q 1.19152,-0.0455 2.10724,0.37844 0.93406,0.42327 1.48304,1.33854 0.54898,0.91528 0.6036,2.3451 l 0.21357,5.59096 -1.75977,0.0672 -0.20588,-5.38933 q -0.0539,-1.41149 -0.7778,-2.09979 -0.70556,-0.689 -1.95207,-0.64138 -0.93488,0.0357 -1.61746,0.42894 -0.68257,0.39323 -1.04021,1.12285 -0.33932,0.72891 -0.2987,1.79211 l 0.19117,5.00437 -1.75978,0.0672 -0.37113,-9.71545 1.68645,-0.0644 0.10014,2.62133 -0.30158,-0.68607 q 0.4402,-0.97142 1.40977,-1.54083 0.96956,-0.56942 2.2894,-0.61983 z m 18.53057,5.80056 q -1.12208,0.45475 -2.26385,0.32367 -1.13167,-0.15498 -2.10611,-0.94768 -0.95745,-0.79959 -1.57756,-2.32971 -0.62011,-1.53011 -0.50648,-2.76378 0.13064,-1.24056 0.842,-2.12267 0.72837,-0.88899 1.88446,-1.35752 1.3261,-0.53743 2.58044,-0.37279 1.25434,0.16464 2.26968,0.96056 1.00845,0.77893 1.56655,2.15603 0.5581,1.3771 0.38335,2.65534 -0.17475,1.27823 -0.96056,2.26968 -0.78582,0.99145 -2.11192,1.52887 z m -3.48202,5.13236 -4.98843,-12.30892 1.56412,-0.63389 0.98528,2.43118 0.74548,2.1325 1.01749,2.02226 2.30819,5.69542 z m 2.76724,-6.50534 q 0.86707,-0.3514 1.38865,-1.01803 0.53858,-0.67352 0.64022,-1.54605 0.11176,-0.89642 -0.27409,-1.84849 -0.39273,-0.96907 -1.08326,-1.50076 -0.68041,-0.55558 -1.53594,-0.66412 -0.83852,-0.11542 -1.70558,0.23597 -0.85007,0.34451 -1.38865,1.01803 -0.52158,0.66663 -0.64022,1.54605 -0.10854,0.85552 0.2842,1.8246 0.38584,0.95207 1.07315,1.52465 0.69741,0.54869 1.53594,0.66412 0.85552,0.10853 1.70558,-0.23597 z m 12.71849,-5.6726 -1.18406,-1.67906 -0.29697,-0.26197 -2.01925,-2.8634 q -0.64489,-0.9145 -1.53347,-1.02863 -0.88416,-0.13969 -1.94856,0.61092 -0.70461,0.49688 -1.21008,1.21249 -0.51605,0.70061 -0.70592,1.41813 l -1.36085,-0.65652 q 0.26578,-0.92818 0.94058,-1.78564 0.67922,-0.88303 1.6237,-1.54906 1.63409,-1.15235 3.07891,-0.98154 1.44483,0.17081 2.59717,1.8049 l 3.38304,4.79733 z m -2.54511,1.92948 q -0.88451,0.62375 -1.77058,0.79966 -0.87107,0.16533 -1.60089,-0.10565 -0.74039,-0.28597 -1.21613,-0.9606 -0.4546,-0.64464 -0.52478,-1.38078 -0.0552,-0.74673 0.41241,-1.54786 0.48259,-0.81171 1.66693,-1.6469 l 2.5186,-1.77609 0.72947,1.03442 -2.45863,1.73381 q -1.0794,0.76118 -1.20047,1.38528 -0.12106,0.6241 0.23839,1.13382 0.41231,0.58467 1.13078,0.61674 0.70789,0.0171 1.53243,-0.56438 0.80955,-0.57089 1.15549,-1.35357 0.36093,-0.79325 0.14447,-1.67316 l 0.98259,0.78858 q 0.21205,0.90547 -0.21154,1.8327 -0.43415,0.91223 -1.52854,1.68398 z m 9.19082,-7.87085 q -1.02398,1.05127 -2.15223,1.07907 -1.12825,0.0278 -2.17952,-0.99617 l -6.38647,-6.22069 1.22878,-1.26153 6.33391,6.1695 q 0.56505,0.55039 1.13609,0.56882 0.58383,0.005 1.09583,-0.52034 0.57599,-0.59134 0.63146,-1.30556 l 1.29071,0.48896 q -0.0319,0.5323 -0.31044,1.05486 -0.26573,0.50943 -0.68812,0.94308 z m -9.30772,-2.45916 -1.03813,-1.01118 4.32632,-4.44162 1.03813,1.01119 z m 7.12244,-10.93259 q 0.64722,-1.00144 1.52029,-1.50745 0.88303,-0.52141 1.94758,-0.44499 1.06456,0.0764 2.26629,0.85309 l 4.69909,3.03694 -0.95589,1.47906 -4.52961,-2.92741 q -1.18633,-0.76671 -2.16557,-0.56958 -0.96929,0.18172 -1.64638,1.22939 -0.50781,0.78575 -0.57805,1.57036 -0.0702,0.7846 0.32153,1.49647 0.40172,0.69647 1.29532,1.27399 l 4.20608,2.71831 -0.9559,1.47906 -11.43189,-7.38824 0.9559,-1.47905 5.46943,3.5348 -0.77465,-0.0856 q -0.54227,-0.91836 -0.45138,-2.03908 0.0909,-1.12073 0.80781,-2.23003 z"
       id="text1-3"
       aria-label="text on path" />
  </g>
</svg>
